# xmcd
#
# Track frame offsets:
#	150
#	12990
#	24592
#	40765
#	54500
#	70755
#	82050
#	98825
#	112810
#	122480
#	131215
#	147260
#	164955
#	178580
#
# Disc length: 2553 seconds
#
# Revision: 5
# Processed by: cddbd v1.4PL0 Copyright (c) Steve Scherf et al.
# Submitted via: dBpowerAMP V4.0
#
DISCID=c009f70e
DTITLE=Lapinlahden Linnut - Tyttö Huutaa Hii!
DYEAR=1995
DGENRE=Comedy
TTITLE0=Enää en sano sanaakaan
TTITLE1=Munasarjatulta
TTITLE2=Tyttö huutaa Hii!
TTITLE3=Älä itke älä sure
TTITLE4=Kohta joku kärsii
TTITLE5=Ei liian syvälle
TTITLE6=Oman asuntonsa kaluste
TTITLE7=Piikki
TTITLE8=Mamma Miab
TTITLE9=Sen pitää olla Raimoa
TTITLE10=Päänahanmetsästäjä
TTITLE11=Suomi nousuun
TTITLE12=Mä kierrän sua
TTITLE13=Mulkku
EXTD=
EXTT0=
EXTT1=
EXTT2=
EXTT3=
EXTT4=
EXTT5=
EXTT6=
EXTT7=
EXTT8=
EXTT9=
EXTT10=
EXTT11=
EXTT12=
EXTT13=
PLAYORDER=
